#N canvas 75 50 812 566 10;
#X floatatom 289 -372 5 0 1024 0 - - -, f 5;
#X obj 261 -168 r _on;
#X obj 261 -134 tgl 15 0 empty empty empty 17 7 0 10 -262144 -1 -1
1 1;
#X obj 289 -398 r _volume;
#X obj 78 -397 r _inputState;
#X obj 262 -106 s on_;
#X obj 94 -231 s inputState_;
#X obj 289 -346 s volume_;
#X obj 633 -235 volume_control;
#X obj 439 -312 *~;
#X obj 468 -313 *~;
#X obj 496 -312 *~;
#X obj 525 -313 *~;
#X obj 555 -312 *~;
#X obj 584 -313 *~;
#X obj 687 -368 == 20;
#X obj 571 -368 == 120;
#X obj 628 -368 == 600;
#X obj 437 -414 adc~ 1 2 3 4 5 6 7 8;
#X obj 516 -46 dac~ 2 1 3 4 5 6 7 8;
#X obj 661 -148 hsl 128 15 0 127 0 0 empty empty empty -2 -8 0 10 -262144
-1 -1 3600 1;
#X obj 658 -129 mtof, f 9;
#X obj 637 -82 lop~;
#X floatatom 658 -106 5 0 0 0 - - -, f 5;
#X obj 705 -197 loadbang;
#X obj 470 -361 delay~ 20;
#X msg 190 -110 \; pd dsp \$1;
#X obj 628 -405 r inputState_;
#X obj 597 -194 volume_control;
#X obj 609 -215 volume_control;
#X obj 582 -175 volume_control;
#X obj 563 -157 volume_control;
#X obj 547 -136 volume_control;
#X obj 529 -117 volume_control;
#X obj 513 -95 volume_control;
#X obj 79 -370 sel 600 120 20;
#X obj 82 -312 hradio 15 1 0 3 empty empty INPUT 0 -8 0 10 -262144
-1 -1 1;
#X msg 79 -346 0;
#X msg 109 -346 1;
#X msg 138 -346 2;
#X msg 85 -259 600;
#X msg 116 -260 120;
#X msg 147 -259 20;
#X obj 85 -290 sel 0 1 2;
#X obj 569 294 udpreceive 9000;
#X obj 571 359 routeOSC /on /inputState /membrane /volume;
#X obj 568 318 unpackOSC;
#X msg 22 198 connect localhost 12000;
#X obj 21 431 udpsend;
#X msg 37 239 disconnect;
#X obj 37 220 r closePort;
#X obj 43 407 packOSC;
#X obj 302 11 t b b b;
#X msg 427 304 [;
#X msg 46 311 ];
#X msg 352 302 /volume \$1;
#X msg 106 299 /on \$1;
#X msg 158 293 /inputState \$1;
#X msg 267 298 /membrane \$1;
#X obj 197 237 r inputState_;
#X obj 409 239 r volume_;
#X obj 305 236 r membrane_;
#X obj 118 237 r on_;
#X obj 565 420 s _on;
#X obj 619 415 s _inputState;
#X obj 796 402 s _volume;
#X obj 715 408 s _membrane;
#X floatatom 173 264 5 0 0 0 - - -, f 5;
#X floatatom 291 268 5 0 0 0 - - -, f 5;
#X floatatom 389 279 5 0 0 0 - - -, f 5;
#X floatatom 128 268 5 0 0 0 - - -, f 5;
#X obj 302 -30 tgl 15 0 empty empty empty 17 7 0 10 -262144 -1 -1 0
1;
#X msg 705 -175 36;
#X floatatom 196 -373 5 0 1024 0 - - -, f 5;
#X obj 196 -399 r _membrane;
#X obj 196 -347 s membrane_;
#X obj 23 -70 loadbang;
#X obj 22 -385 loadbang;
#X obj 302 -11 metro 100;
#X obj 508 440 print;
#X msg 683 212 status;
#X msg 644 235 port 9000;
#X connect 0 0 7 0;
#X connect 1 0 2 0;
#X connect 2 0 5 0;
#X connect 2 0 26 0;
#X connect 3 0 0 0;
#X connect 4 0 35 0;
#X connect 8 0 22 0;
#X connect 9 0 29 0;
#X connect 9 0 30 0;
#X connect 9 0 32 0;
#X connect 9 0 34 0;
#X connect 10 0 8 0;
#X connect 10 0 28 0;
#X connect 10 0 31 0;
#X connect 10 0 33 0;
#X connect 11 0 29 0;
#X connect 11 0 30 0;
#X connect 11 0 32 0;
#X connect 11 0 34 0;
#X connect 12 0 8 0;
#X connect 12 0 28 0;
#X connect 12 0 31 0;
#X connect 12 0 33 0;
#X connect 13 0 29 0;
#X connect 13 0 30 0;
#X connect 13 0 32 0;
#X connect 13 0 34 0;
#X connect 14 0 8 0;
#X connect 14 0 28 0;
#X connect 14 0 31 0;
#X connect 14 0 33 0;
#X connect 15 0 13 1;
#X connect 15 0 14 1;
#X connect 16 0 9 1;
#X connect 16 0 10 1;
#X connect 17 0 11 1;
#X connect 17 0 12 1;
#X connect 18 2 9 0;
#X connect 18 3 25 0;
#X connect 18 4 11 0;
#X connect 18 5 12 0;
#X connect 18 6 13 0;
#X connect 18 7 14 0;
#X connect 20 0 21 0;
#X connect 21 0 23 0;
#X connect 22 0 19 7;
#X connect 23 0 22 1;
#X connect 24 0 72 0;
#X connect 25 0 10 0;
#X connect 27 0 16 0;
#X connect 27 0 17 0;
#X connect 27 0 15 0;
#X connect 28 0 19 5;
#X connect 29 0 19 6;
#X connect 30 0 19 4;
#X connect 31 0 19 3;
#X connect 32 0 19 2;
#X connect 33 0 19 1;
#X connect 34 0 19 0;
#X connect 35 0 37 0;
#X connect 35 1 38 0;
#X connect 35 2 39 0;
#X connect 36 0 43 0;
#X connect 37 0 36 0;
#X connect 38 0 36 0;
#X connect 39 0 36 0;
#X connect 40 0 6 0;
#X connect 41 0 6 0;
#X connect 42 0 6 0;
#X connect 43 0 40 0;
#X connect 43 1 41 0;
#X connect 43 2 42 0;
#X connect 44 0 46 0;
#X connect 44 0 79 0;
#X connect 45 0 63 0;
#X connect 45 1 64 0;
#X connect 45 2 66 0;
#X connect 45 3 65 0;
#X connect 46 0 45 0;
#X connect 47 0 48 0;
#X connect 49 0 48 0;
#X connect 50 0 49 0;
#X connect 51 0 48 0;
#X connect 52 0 54 0;
#X connect 52 1 67 0;
#X connect 52 1 70 0;
#X connect 52 1 68 0;
#X connect 52 1 69 0;
#X connect 52 2 53 0;
#X connect 53 0 51 0;
#X connect 54 0 51 0;
#X connect 55 0 51 0;
#X connect 56 0 51 0;
#X connect 57 0 51 0;
#X connect 58 0 51 0;
#X connect 59 0 67 0;
#X connect 60 0 69 0;
#X connect 61 0 68 0;
#X connect 62 0 70 0;
#X connect 67 0 57 0;
#X connect 68 0 58 0;
#X connect 69 0 55 0;
#X connect 70 0 56 0;
#X connect 71 0 78 0;
#X connect 72 0 20 0;
#X connect 73 0 75 0;
#X connect 74 0 73 0;
#X connect 76 0 47 0;
#X connect 76 0 71 0;
#X connect 77 0 38 0;
#X connect 78 0 52 0;
#X connect 80 0 44 0;
#X connect 81 0 44 0;
