#N canvas 25 117 1211 566 10;
#X obj 161 -65 tgl 15 0 empty empty empty 17 7 0 10 -262144 -1 -1 0
1;
#X obj 248 -122 s openPort;
#X obj 160 -148 t b b;
#X obj 160 -173 loadbang;
#X obj 161 -123 delay 1000;
#X obj 280 -167 bng 15 250 50 0 empty empty empty 17 7 0 10 -262144
-1 -1;
#X obj 161 -41 metro 25;
#X obj 170 137 r openPort;
#N canvas 367 245 598 398 frontpanel_single 0;
#X obj 78 6 inlet;
#X obj 204 267 inlet;
#X obj 204 299 pack s;
#X obj 48 345 o.io.slipserial;
#X obj 48 324 mrpeach/packOSC;
#X obj 48 366 mrpeach/unpackOSC;
#X obj 48 387 mrpeach/routeOSC /status /on /inputState /input /membrane
/volume, f 67;
#X floatatom 48 453 5 0 0 0 - - -, f 5;
#X text 53 434 status;
#X floatatom 119 454 5 0 0 0 - - -, f 5;
#X floatatom 185 454 5 0 0 0 - - -, f 5;
#X floatatom 274 455 5 0 0 0 - - -, f 5;
#X floatatom 340 455 5 0 0 0 - - -, f 5;
#X floatatom 425 454 5 0 0 0 - - -, f 5;
#X text 124 435 on/off;
#X text 190 435 inputState;
#X text 279 436 input;
#X text 345 436 membrane;
#X text 430 435 volume;
#X msg 624 210 [;
#X msg -24 213 ];
#X text -114 214 close bundle;
#X text 654 211 open a bundle (and generate time tag);
#X obj 78 132 t b a b;
#X text 146 235 0 \, 890 \, 1024;
#X floatatom 307 189 5 0 0 0 - - -, f 5;
#X floatatom 483 185 5 0 0 0 - - -, f 5;
#X obj 305 145 r _membrane;
#X obj 485 147 r _volume;
#X obj 340 534 s _membrane;
#X obj 425 534 s _volume;
#X obj 184 531 s _inputState;
#X obj 116 531 s _on;
#X obj 41 154 r _on;
#X obj 140 151 r _inputState;
#X floatatom 139 187 5 0 0 0 - - -, f 5;
#X floatatom 39 190 5 0 0 0 - - -, f 5;
#X msg 140 213 /inputState \$1;
#X msg 38 213 /on \$1;
#X msg 485 211 /volume \$1;
#X msg 308 214 /membrane \$1;
#X text 698 318 /dev/cu.usbmodem1A1251;
#X text 709 273 /dev/cu.wchusbserial1420;
#X text 692 295 /dev/cu.wchusbserial1d1160;
#X obj 48 542 ==;
#X floatatom 66 523 5 0 0 0 - - -, f 5;
#X obj 152 478 r write;
#X obj 223 478 r write;
#X obj 374 476 r write;
#X obj 463 477 r write;
#X obj 113 504 spigot;
#X obj 184 505 spigot;
#X obj 335 503 spigot;
#X obj 424 502 spigot;
#X obj 48 565 s write;
#X obj 66 478 loadbang;
#X msg 66 500 2;
#X msg 625 322 close;
#X text -150 512 pass values to system in write mode [2] only;
#X obj 625 293 inlet;
#X msg 204 325 devicename \$1 \, baud 57600 \, pollintervall 4 \, verbose
0;
#X connect 0 0 23 0;
#X connect 1 0 2 0;
#X connect 2 0 60 0;
#X connect 3 0 5 0;
#X connect 4 0 3 0;
#X connect 5 0 6 0;
#X connect 6 0 7 0;
#X connect 6 1 9 0;
#X connect 6 2 10 0;
#X connect 6 3 11 0;
#X connect 6 4 12 0;
#X connect 6 5 13 0;
#X connect 7 0 44 0;
#X connect 9 0 50 0;
#X connect 10 0 51 0;
#X connect 12 0 52 0;
#X connect 13 0 53 0;
#X connect 19 0 4 0;
#X connect 20 0 4 0;
#X connect 23 0 20 0;
#X connect 23 1 36 0;
#X connect 23 1 35 0;
#X connect 23 1 25 0;
#X connect 23 1 26 0;
#X connect 23 2 19 0;
#X connect 25 0 40 0;
#X connect 26 0 39 0;
#X connect 27 0 25 0;
#X connect 28 0 26 0;
#X connect 33 0 36 0;
#X connect 34 0 35 0;
#X connect 35 0 37 0;
#X connect 36 0 38 0;
#X connect 37 0 4 0;
#X connect 38 0 4 0;
#X connect 39 0 4 0;
#X connect 40 0 4 0;
#X connect 44 0 54 0;
#X connect 45 0 44 1;
#X connect 46 0 50 1;
#X connect 47 0 51 1;
#X connect 48 0 52 1;
#X connect 49 0 53 1;
#X connect 50 0 32 0;
#X connect 51 0 31 0;
#X connect 52 0 29 0;
#X connect 53 0 30 0;
#X connect 55 0 56 0;
#X connect 56 0 45 0;
#X connect 57 0 3 1;
#X connect 59 0 57 0;
#X connect 60 0 3 1;
#X restore 102 353 pd frontpanel_single;
#X obj 358 -170 bng 15 250 50 0 empty empty empty 17 7 0 10 -262144
-1 -1;
#X obj 239 193 r closePort;
#X obj 359 -146 s closePort;
#X obj 161 -16 s OSCMetro;
#X obj 172 -93 r closePort;
#X obj 445 137 r openPort;
#N canvas 608 237 598 398 frontpanel_single 0;
#X obj 78 44 inlet;
#X obj 204 267 inlet;
#X obj 204 299 pack s;
#X obj 48 345 o.io.slipserial;
#X obj 48 324 mrpeach/packOSC;
#X obj 48 366 mrpeach/unpackOSC;
#X obj 48 387 mrpeach/routeOSC /status /on /inputState /input /membrane
/volume, f 67;
#X floatatom 48 453 5 0 0 0 - - -, f 5;
#X text 53 434 status;
#X floatatom 119 454 5 0 0 0 - - -, f 5;
#X floatatom 185 454 5 0 0 0 - - -, f 5;
#X floatatom 274 455 5 0 0 0 - - -, f 5;
#X floatatom 340 455 5 0 0 0 - - -, f 5;
#X floatatom 425 454 5 0 0 0 - - -, f 5;
#X text 124 435 on/off;
#X text 190 435 inputState;
#X text 279 436 input;
#X text 345 436 membrane;
#X text 430 435 volume;
#X msg 624 210 [;
#X msg -24 213 ];
#X text -114 214 close bundle;
#X text 654 211 open a bundle (and generate time tag);
#X obj 78 132 t b a b;
#X text 146 235 0 \, 890 \, 1024;
#X floatatom 307 189 5 0 0 0 - - -, f 5;
#X floatatom 483 185 5 0 0 0 - - -, f 5;
#X obj 305 145 r _membrane;
#X obj 485 147 r _volume;
#X obj 340 534 s _membrane;
#X obj 425 534 s _volume;
#X obj 184 531 s _inputState;
#X obj 116 531 s _on;
#X obj 41 154 r _on;
#X obj 140 151 r _inputState;
#X floatatom 139 187 5 0 0 0 - - -, f 5;
#X floatatom 39 190 5 0 0 0 - - -, f 5;
#X msg 140 213 /inputState \$1;
#X msg 38 213 /on \$1;
#X msg 485 211 /volume \$1;
#X msg 308 214 /membrane \$1;
#X obj 48 542 ==;
#X floatatom 66 523 5 0 0 0 - - -, f 5;
#X obj 152 478 r write;
#X obj 223 478 r write;
#X obj 374 476 r write;
#X obj 463 477 r write;
#X obj 113 504 spigot;
#X obj 184 505 spigot;
#X obj 335 503 spigot;
#X obj 424 502 spigot;
#X obj 48 565 s write;
#X obj 66 478 loadbang;
#X msg 66 500 2;
#X msg 625 322 close;
#X text -150 512 pass values to system in write mode [2] only;
#X obj 625 293 inlet;
#X msg 204 325 devicename \$1 \, baud 57600 \, pollintervall 4 \, verbose
0;
#X connect 0 0 23 0;
#X connect 1 0 2 0;
#X connect 2 0 57 0;
#X connect 3 0 5 0;
#X connect 4 0 3 0;
#X connect 5 0 6 0;
#X connect 6 0 7 0;
#X connect 6 1 9 0;
#X connect 6 2 10 0;
#X connect 6 3 11 0;
#X connect 6 4 12 0;
#X connect 6 5 13 0;
#X connect 7 0 41 0;
#X connect 9 0 47 0;
#X connect 10 0 48 0;
#X connect 12 0 49 0;
#X connect 13 0 50 0;
#X connect 19 0 4 0;
#X connect 20 0 4 0;
#X connect 23 0 20 0;
#X connect 23 1 36 0;
#X connect 23 1 35 0;
#X connect 23 1 25 0;
#X connect 23 1 26 0;
#X connect 23 2 19 0;
#X connect 25 0 40 0;
#X connect 26 0 39 0;
#X connect 27 0 25 0;
#X connect 28 0 26 0;
#X connect 33 0 36 0;
#X connect 34 0 35 0;
#X connect 35 0 37 0;
#X connect 36 0 38 0;
#X connect 37 0 4 0;
#X connect 38 0 4 0;
#X connect 39 0 4 0;
#X connect 40 0 4 0;
#X connect 41 0 51 0;
#X connect 42 0 41 1;
#X connect 43 0 47 1;
#X connect 44 0 48 1;
#X connect 45 0 49 1;
#X connect 46 0 50 1;
#X connect 47 0 32 0;
#X connect 48 0 31 0;
#X connect 49 0 29 0;
#X connect 50 0 30 0;
#X connect 52 0 53 0;
#X connect 53 0 42 0;
#X connect 54 0 3 1;
#X connect 56 0 54 0;
#X connect 57 0 3 1;
#X restore 377 351 pd frontpanel_single;
#X obj 514 193 r closePort;
#X obj 727 135 r openPort;
#N canvas 564 23 598 398 frontpanel_single 0;
#X obj 78 44 inlet;
#X obj 204 267 inlet;
#X obj 204 299 pack s;
#X obj 48 345 o.io.slipserial;
#X obj 48 324 mrpeach/packOSC;
#X obj 48 366 mrpeach/unpackOSC;
#X obj 48 387 mrpeach/routeOSC /status /on /inputState /input /membrane
/volume, f 67;
#X floatatom 48 453 5 0 0 0 - - -, f 5;
#X text 53 434 status;
#X floatatom 125 454 5 0 0 0 - - -, f 5;
#X floatatom 203 454 5 0 0 0 - - -, f 5;
#X floatatom 281 424 5 0 0 0 - - -, f 5;
#X floatatom 358 455 5 0 0 0 - - -, f 5;
#X floatatom 436 454 5 0 0 0 - - -, f 5;
#X text 130 435 on/off;
#X text 208 435 inputState;
#X text 286 405 input;
#X text 363 436 membrane;
#X text 441 435 volume;
#X msg 624 210 [;
#X msg -24 213 ];
#X text -114 214 close bundle;
#X text 654 211 open a bundle (and generate time tag);
#X obj 78 132 t b a b;
#X text 146 235 0 \, 890 \, 1024;
#X floatatom 307 189 5 0 0 0 - - -, f 5;
#X floatatom 483 185 5 0 0 0 - - -, f 5;
#X obj 305 145 r _membrane;
#X obj 485 147 r _volume;
#X obj 358 534 s _membrane;
#X obj 436 534 s _volume;
#X obj 203 531 s _inputState;
#X obj 125 531 s _on;
#X obj 41 154 r _on;
#X obj 140 151 r _inputState;
#X floatatom 139 187 5 0 0 0 - - -, f 5;
#X floatatom 39 190 5 0 0 0 - - -, f 5;
#X msg 140 213 /inputState \$1;
#X msg 38 213 /on \$1;
#X msg 485 211 /volume \$1;
#X msg 308 214 /membrane \$1;
#X text 698 318 /dev/cu.usbmodem1A1251;
#X text 709 273 /dev/cu.wchusbserial1420;
#X text 692 295 /dev/cu.wchusbserial1d1160;
#X obj 48 542 ==;
#X floatatom 66 523 5 0 0 0 - - -, f 5;
#X obj 164 478 r write;
#X obj 242 478 r write;
#X obj 397 476 r write;
#X obj 475 477 r write;
#X obj 125 504 spigot;
#X obj 203 505 spigot;
#X obj 358 503 spigot;
#X obj 436 502 spigot;
#X obj 48 565 s write;
#X obj 66 478 loadbang;
#X msg 66 500 2;
#X msg 625 322 close;
#X obj 625 293 inlet;
#X msg 204 325 devicename \$1 \, baud 57600 \, pollintervall 4 \, verbose
0;
#X text -150 512 pass values to system in write mode [2] only;
#X connect 0 0 23 0;
#X connect 1 0 2 0;
#X connect 2 0 59 0;
#X connect 3 0 5 0;
#X connect 4 0 3 0;
#X connect 5 0 6 0;
#X connect 6 0 7 0;
#X connect 6 1 9 0;
#X connect 6 2 10 0;
#X connect 6 3 11 0;
#X connect 6 4 12 0;
#X connect 6 5 13 0;
#X connect 7 0 44 0;
#X connect 9 0 50 0;
#X connect 10 0 51 0;
#X connect 12 0 52 0;
#X connect 13 0 53 0;
#X connect 19 0 4 0;
#X connect 20 0 4 0;
#X connect 23 0 20 0;
#X connect 23 1 36 0;
#X connect 23 1 35 0;
#X connect 23 1 25 0;
#X connect 23 1 26 0;
#X connect 23 2 19 0;
#X connect 25 0 40 0;
#X connect 26 0 39 0;
#X connect 27 0 25 0;
#X connect 28 0 26 0;
#X connect 33 0 36 0;
#X connect 34 0 35 0;
#X connect 35 0 37 0;
#X connect 36 0 38 0;
#X connect 37 0 4 0;
#X connect 38 0 4 0;
#X connect 39 0 4 0;
#X connect 40 0 4 0;
#X connect 44 0 54 0;
#X connect 45 0 44 1;
#X connect 46 0 50 1;
#X connect 47 0 51 1;
#X connect 48 0 52 1;
#X connect 49 0 53 1;
#X connect 50 0 32 0;
#X connect 51 0 31 0;
#X connect 52 0 29 0;
#X connect 53 0 30 0;
#X connect 55 0 56 0;
#X connect 56 0 45 0;
#X connect 57 0 3 1;
#X connect 58 0 57 0;
#X connect 59 0 3 1;
#X restore 659 349 pd frontpanel_single;
#X obj 796 191 r closePort;
#X obj 239 219 bng 15 250 50 0 empty empty empty 17 7 0 10 -262144
-1 -1;
#X obj 514 221 bng 15 250 50 0 empty empty empty 17 7 0 10 -262144
-1 -1;
#X obj 796 219 bng 15 250 50 0 empty empty empty 17 7 0 10 -262144
-1 -1;
#X obj 134 219 bng 15 250 50 0 empty empty empty 17 7 0 10 -262144
-1 -1;
#X obj 403 222 bng 15 250 50 0 empty empty empty 17 7 0 10 -262144
-1 -1;
#X obj 684 220 bng 15 250 50 0 empty empty empty 17 7 0 10 -262144
-1 -1;
#X obj 102 325 switch;
#X obj 121 296 r OSCMetro;
#X msg 139 266 0;
#X msg 102 266 1;
#X obj 377 324 switch;
#X obj 396 295 r OSCMetro;
#X msg 414 265 0;
#X msg 377 265 1;
#X obj 659 319 switch;
#X obj 678 290 r OSCMetro;
#X msg 696 260 0;
#X msg 659 260 1;
#X text 263 137 entrance;
#X text 551 136 main rack;
#X text 817 134 bedroom;
#X msg 727 159 /dev/cu.usbmodem1D1151;
#X msg 170 161 /dev/cu.wchusbserial1d1160;
#X msg 445 161 /dev/cu.wchusbserial1d1170;
#X connect 0 0 6 0;
#X connect 2 0 4 0;
#X connect 2 1 1 0;
#X connect 3 0 2 0;
#X connect 4 0 0 0;
#X connect 5 0 2 0;
#X connect 6 0 12 0;
#X connect 7 0 42 0;
#X connect 9 0 11 0;
#X connect 10 0 20 0;
#X connect 13 0 0 0;
#X connect 14 0 43 0;
#X connect 16 0 21 0;
#X connect 17 0 41 0;
#X connect 19 0 22 0;
#X connect 20 0 8 2;
#X connect 20 0 28 0;
#X connect 21 0 15 2;
#X connect 21 0 32 0;
#X connect 22 0 18 2;
#X connect 22 0 36 0;
#X connect 23 0 29 0;
#X connect 24 0 33 0;
#X connect 25 0 37 0;
#X connect 26 0 8 0;
#X connect 27 0 26 1;
#X connect 28 0 26 0;
#X connect 29 0 26 0;
#X connect 30 0 15 0;
#X connect 31 0 30 1;
#X connect 32 0 30 0;
#X connect 33 0 30 0;
#X connect 34 0 18 0;
#X connect 35 0 34 1;
#X connect 36 0 34 0;
#X connect 37 0 34 0;
#X connect 41 0 25 0;
#X connect 41 0 18 1;
#X connect 42 0 23 0;
#X connect 42 0 8 1;
#X connect 43 0 24 0;
#X connect 43 0 15 1;
