#N canvas 529 35 751 413 10;
#X obj 131 199 o.io.slipserial;
#X obj 131 178 mrpeach/packOSC;
#X obj 131 220 mrpeach/unpackOSC;
#X obj 131 241 mrpeach/routeOSC /status /on /inputState /input /membrane
/volume, f 67;
#X floatatom 131 307 5 0 0 0 - - -, f 5;
#X text 136 288 status;
#X floatatom 202 308 5 0 0 0 - - -, f 5;
#X floatatom 268 308 5 0 0 0 - - -, f 5;
#X floatatom 357 309 5 0 0 0 - - -, f 5;
#X floatatom 423 309 5 0 0 0 - - -, f 5;
#X floatatom 508 308 5 0 0 0 - - -, f 5;
#X text 207 289 on/off;
#X text 273 289 inputState;
#X text 362 290 input;
#X text 428 290 membrane;
#X text 513 289 volume;
#X msg 707 64 [;
#X msg 59 67 ];
#X text -31 68 close bundle;
#X text 737 65 open a bundle (and generate time tag);
#X obj 161 -14 t b a b;
#X text 229 89 0 \, 890 \, 1024;
#X obj 161 -65 tgl 15 0 empty empty empty 17 7 0 10 -262144 -1 -1 1
1;
#X floatatom 390 43 5 0 0 0 - - -, f 5;
#X floatatom 566 39 5 0 0 0 - - -, f 5;
#X obj 388 -1 r _membrane;
#X obj 568 1 r _volume;
#X obj 423 388 s _membrane;
#X obj 508 388 s _volume;
#X obj 267 385 s _inputState;
#X obj 199 385 s _on;
#X obj 124 8 r _on;
#X obj 223 5 r _inputState;
#X floatatom 222 41 5 0 0 0 - - -, f 5;
#X floatatom 122 44 5 0 0 0 - - -, f 5;
#X msg 223 67 /inputState \$1;
#X msg 121 67 /on \$1;
#X msg 568 65 /volume \$1;
#X msg 391 68 /membrane \$1;
#X obj 257 161 r openPort;
#X obj 248 -89 s openPort;
#X obj 160 -115 t b b;
#X obj 160 -140 loadbang;
#X obj 161 -90 delay 1000;
#X text 481 150 /dev/cu.usbmodem1A1251;
#X text 539 122 /dev/cu.wchusbserial1420;
#X obj 280 -134 bng 15 250 50 0 empty empty empty 17 7 0 10 -262144
-1 -1;
#X text 671 154 /dev/cu.wchusbserial1d1160;
#X obj 738 27 print;
#X obj 131 396 ==;
#X floatatom 149 377 5 0 0 0 - - -, f 5;
#X obj 235 332 r write;
#X obj 306 332 r write;
#X obj 457 330 r write;
#X obj 546 331 r write;
#X obj 196 358 spigot;
#X obj 267 359 spigot;
#X obj 418 357 spigot;
#X obj 507 356 spigot;
#X obj 131 419 s write;
#X obj 149 332 loadbang;
#X msg 149 354 2;
#X text -67 366 pass values to system in write mode [2] only;
#X msg -7 173 close;
#X obj -36 277 print;
#X text 809 228 pollintervall 4;
#X msg -19 8 /deviation \$1;
#X msg 0 -28 1.03;
#X msg 257 189 devicename /dev/cu.wchusbserial1420 \, baud 57600 \,
pollintervall 4 \, verbose 1;
#X obj 161 -41 metro 25;
#X connect 0 0 2 0;
#X connect 1 0 0 0;
#X connect 2 0 3 0;
#X connect 2 0 64 0;
#X connect 3 0 4 0;
#X connect 3 1 6 0;
#X connect 3 2 7 0;
#X connect 3 3 8 0;
#X connect 3 4 9 0;
#X connect 3 5 10 0;
#X connect 4 0 49 0;
#X connect 6 0 55 0;
#X connect 7 0 56 0;
#X connect 9 0 57 0;
#X connect 10 0 58 0;
#X connect 16 0 1 0;
#X connect 17 0 1 0;
#X connect 20 0 17 0;
#X connect 20 1 34 0;
#X connect 20 1 33 0;
#X connect 20 1 23 0;
#X connect 20 1 24 0;
#X connect 20 1 67 0;
#X connect 20 2 16 0;
#X connect 22 0 69 0;
#X connect 23 0 38 0;
#X connect 24 0 37 0;
#X connect 25 0 23 0;
#X connect 26 0 24 0;
#X connect 31 0 34 0;
#X connect 32 0 33 0;
#X connect 33 0 35 0;
#X connect 34 0 36 0;
#X connect 35 0 1 0;
#X connect 36 0 1 0;
#X connect 37 0 1 0;
#X connect 38 0 1 0;
#X connect 39 0 68 0;
#X connect 41 0 43 0;
#X connect 41 1 40 0;
#X connect 42 0 41 0;
#X connect 43 0 22 0;
#X connect 46 0 41 0;
#X connect 49 0 59 0;
#X connect 50 0 49 1;
#X connect 51 0 55 1;
#X connect 52 0 56 1;
#X connect 53 0 57 1;
#X connect 54 0 58 1;
#X connect 55 0 30 0;
#X connect 56 0 29 0;
#X connect 57 0 27 0;
#X connect 58 0 28 0;
#X connect 60 0 61 0;
#X connect 61 0 50 0;
#X connect 63 0 0 1;
#X connect 66 0 1 0;
#X connect 67 0 66 0;
#X connect 68 0 0 1;
#X connect 69 0 20 0;
