#N canvas 69 22 1211 566 10;
#X obj 78 44 inlet;
#X obj 204 267 inlet;
#X obj 204 299 pack s;
#X obj 48 324 mrpeach/packOSC;
#X obj 48 466 mrpeach/unpackOSC;
#X obj 48 487 mrpeach/routeOSC /status /on /inputState /input /membrane
/volume, f 67;
#X floatatom 48 553 5 0 0 0 - - -, f 5;
#X text 53 534 status;
#X floatatom 119 554 5 0 0 0 - - -, f 5;
#X floatatom 185 554 5 0 0 0 - - -, f 5;
#X floatatom 274 555 5 0 0 0 - - -, f 5;
#X floatatom 340 555 5 0 0 0 - - -, f 5;
#X floatatom 425 554 5 0 0 0 - - -, f 5;
#X text 124 535 on/off;
#X text 190 535 inputState;
#X text 279 536 input;
#X text 345 536 membrane;
#X text 430 535 volume;
#X msg 624 210 [;
#X msg -24 213 ];
#X text -114 214 close bundle;
#X text 654 211 open a bundle (and generate time tag);
#X obj 78 132 t b a b;
#X text 146 235 0 \, 890 \, 1024;
#X floatatom 307 189 5 0 0 0 - - -, f 5;
#X floatatom 483 185 5 0 0 0 - - -, f 5;
#X obj 305 145 r _membrane;
#X obj 485 147 r _volume;
#X obj 340 634 s _membrane;
#X obj 425 634 s _volume;
#X obj 184 631 s _inputState;
#X obj 116 631 s _on;
#X obj 41 154 r _on;
#X obj 140 151 r _inputState;
#X floatatom 139 187 5 0 0 0 - - -, f 5;
#X floatatom 39 190 5 0 0 0 - - -, f 5;
#X msg 140 213 /inputState \$1;
#X msg 38 213 /on \$1;
#X msg 485 211 /volume \$1;
#X msg 308 214 /membrane \$1;
#X obj 48 642 ==;
#X floatatom 66 623 5 0 0 0 - - -, f 5;
#X obj 152 578 r write;
#X obj 223 578 r write;
#X obj 374 576 r write;
#X obj 463 577 r write;
#X obj 113 604 spigot;
#X obj 184 605 spigot;
#X obj 335 603 spigot;
#X obj 424 602 spigot;
#X obj 48 665 s write;
#X obj 66 578 loadbang;
#X msg 66 600 2;
#X msg 625 322 close;
#X text -150 612 pass values to system in write mode [2] only;
#X obj 625 293 inlet;
#X obj 48 430 mrpeach/slipdec 65536;
#X obj 48 361 mrpeach/slipenc 65536;
#X obj 48 386 comport;
#X obj 94 408 print errors;
#X msg 204 325 devicename \$1 \, baud 57600 \, pollintervall 3 \, verbose
0 \, retries 10;
#X connect 0 0 22 0;
#X connect 1 0 2 0;
#X connect 2 0 60 0;
#X connect 3 0 57 0;
#X connect 4 0 5 0;
#X connect 5 0 6 0;
#X connect 5 1 8 0;
#X connect 5 2 9 0;
#X connect 5 3 10 0;
#X connect 5 4 11 0;
#X connect 5 5 12 0;
#X connect 6 0 40 0;
#X connect 8 0 46 0;
#X connect 9 0 47 0;
#X connect 11 0 48 0;
#X connect 12 0 49 0;
#X connect 18 0 3 0;
#X connect 19 0 3 0;
#X connect 22 0 19 0;
#X connect 22 1 35 0;
#X connect 22 1 34 0;
#X connect 22 1 24 0;
#X connect 22 1 25 0;
#X connect 22 2 18 0;
#X connect 24 0 39 0;
#X connect 25 0 38 0;
#X connect 26 0 24 0;
#X connect 27 0 25 0;
#X connect 32 0 35 0;
#X connect 33 0 34 0;
#X connect 34 0 36 0;
#X connect 35 0 37 0;
#X connect 36 0 3 0;
#X connect 37 0 3 0;
#X connect 38 0 3 0;
#X connect 39 0 3 0;
#X connect 40 0 50 0;
#X connect 41 0 40 1;
#X connect 42 0 46 1;
#X connect 43 0 47 1;
#X connect 44 0 48 1;
#X connect 45 0 49 1;
#X connect 46 0 31 0;
#X connect 47 0 30 0;
#X connect 48 0 28 0;
#X connect 49 0 29 0;
#X connect 51 0 52 0;
#X connect 52 0 41 0;
#X connect 53 0 58 0;
#X connect 55 0 53 0;
#X connect 56 0 4 0;
#X connect 57 0 58 0;
#X connect 58 0 56 0;
#X connect 58 1 59 0;
#X connect 60 0 58 0;
