#N canvas 384 23 812 566 10;
#X obj 160 -32 tgl 15 0 empty empty empty 17 7 0 10 -262144 -1 -1 0
1;
#X obj 247 -123 s openPort;
#X obj 160 -148 t b b;
#X obj 160 -173 loadbang;
#X obj 232 -173 bng 15 250 50 0 empty empty empty 17 7 0 10 -262144
-1 -1;
#X obj 358 -170 bng 15 250 50 0 empty empty empty 17 7 0 10 -262144
-1 -1;
#X obj 239 193 r closePort;
#X obj 358 -147 s closePort;
#X obj 160 17 s OSCMetro;
#X obj 203 -91 r closePort;
#X obj 239 219 bng 15 250 50 0 empty empty empty 17 7 0 10 -262144
-1 -1;
#X obj 131 219 bng 15 250 50 0 empty empty empty 17 7 0 10 -262144
-1 -1;
#X obj 102 325 switch;
#X obj 121 296 r OSCMetro;
#X msg 139 266 0;
#X msg 102 266 1;
#X text 263 117 entrance;
#X floatatom 583 29 5 0 1024 0 - - -, f 5;
#X floatatom 382 30 5 0 1024 0 - - -, f 5;
#X floatatom 489 29 5 0 1024 0 - - -, f 5;
#X obj 328 -12 r _on;
#X obj 328 30 tgl 15 0 empty empty empty 17 7 0 10 -262144 -1 -1 1
1;
#X obj 583 -12 r _volume;
#X obj 382 -12 r _inputState;
#X obj 489 -10 r _membrane;
#X msg 929 -160 ports;
#X obj 975 -110 route ports;
#X obj 741 1 print port1;
#X obj 833 1 print port2;
#X obj 922 1 print port3;
#X obj 1012 -1 print port4;
#X obj 1011 22 unpack s;
#X symbolatom 1010 51 10 0 0 0 - - -, f 10;
#X obj 923 24 unpack s;
#X symbolatom 922 53 10 0 0 0 - - -, f 10;
#X obj 832 23 unpack s;
#X symbolatom 831 52 10 0 0 0 - - -, f 10;
#X obj 742 24 unpack s;
#X symbolatom 741 53 10 0 0 0 - - -, f 10;
#X obj 741 76 s port1;
#X obj 833 78 s port2;
#X obj 923 78 s port3;
#X obj 1009 80 s port4;
#X obj 160 -123 delay 3000;
#X obj 930 -185 r openPort;
#X obj 1111 21 unpack s;
#X symbolatom 1110 50 10 0 0 0 - - -, f 10;
#X obj 1219 18 unpack s;
#X symbolatom 1218 47 10 0 0 0 - - -, f 10;
#X obj 1112 -2 print port5;
#X obj 1220 -5 print port6;
#X obj 975 -87 route 1 2 3 4 5 6;
#X obj 1109 79 s port5;
#X obj 1217 76 s port6;
#X obj 170 117 r port4;
#X msg 170 161 \$1;
#X obj 929 -136 comport;
#X msg 160 -60 1;
#X msg 203 -60 0;
#X obj 160 -8 metro 50;
#X obj 102 353 frontpanel_single;
#X obj 1173 -42 spigot;
#X obj 1212 -64 tgl 15 0 empty empty empty 17 7 0 10 -262144 -1 -1
0 1;
#X obj 1079 -38 spigot;
#X obj 1118 -60 tgl 15 0 empty empty empty 17 7 0 10 -262144 -1 -1
0 1;
#X obj 1004 -39 spigot;
#X obj 1043 -61 tgl 15 0 empty empty empty 17 7 0 10 -262144 -1 -1
1 1;
#X obj 329 58 s on_;
#X obj 381 59 s inputState_;
#X obj 492 60 s membrane_;
#X obj 584 58 s volume_;
#X obj 749 -30 spigot;
#X obj 788 -52 tgl 15 0 empty empty empty 17 7 0 10 -262144 -1 -1 0
1;
#X obj 835 -30 spigot;
#X obj 874 -52 tgl 15 0 empty empty empty 17 7 0 10 -262144 -1 -1 0
1;
#X obj 929 -26 spigot;
#X obj 968 -48 tgl 15 0 empty empty empty 17 7 0 10 -262144 -1 -1 0
1;
#X obj 225 143 print A;
#X obj 102 417 print A;
#X obj 102 394 spigot;
#X obj 142 373 tgl 15 0 empty empty empty 17 7 0 10 -262144 -1 -1 0
1;
#X obj 448 194 r closePort;
#X obj 448 220 bng 15 250 50 0 empty empty empty 17 7 0 10 -262144
-1 -1;
#X obj 340 220 bng 15 250 50 0 empty empty empty 17 7 0 10 -262144
-1 -1;
#X obj 311 326 switch;
#X obj 330 297 r OSCMetro;
#X msg 348 267 0;
#X msg 311 267 1;
#X text 472 118 entrance;
#X msg 379 162 \$1;
#X obj 311 354 frontpanel_single;
#X obj 311 395 spigot;
#X obj 351 374 tgl 15 0 empty empty empty 17 7 0 10 -262144 -1 -1 0
1;
#X obj 682 191 r closePort;
#X obj 682 217 bng 15 250 50 0 empty empty empty 17 7 0 10 -262144
-1 -1;
#X obj 574 217 bng 15 250 50 0 empty empty empty 17 7 0 10 -262144
-1 -1;
#X obj 545 323 switch;
#X obj 564 294 r OSCMetro;
#X msg 582 264 0;
#X msg 545 264 1;
#X text 706 115 entrance;
#X msg 613 159 \$1;
#X obj 545 351 frontpanel_single;
#X obj 545 415 print A;
#X obj 545 392 spigot;
#X obj 585 371 tgl 15 0 empty empty empty 17 7 0 10 -262144 -1 -1 0
1;
#X obj 379 118 r port5;
#X obj 613 115 r port6;
#X obj 668 141 print C;
#X obj 434 144 print B;
#X obj 311 418 print B;
#X connect 0 0 59 0;
#X connect 2 0 43 0;
#X connect 2 1 1 0;
#X connect 3 0 2 0;
#X connect 4 0 2 0;
#X connect 5 0 7 0;
#X connect 6 0 10 0;
#X connect 9 0 58 0;
#X connect 10 0 14 0;
#X connect 10 0 60 2;
#X connect 11 0 15 0;
#X connect 12 0 60 0;
#X connect 13 0 12 1;
#X connect 14 0 12 0;
#X connect 15 0 12 0;
#X connect 17 0 70 0;
#X connect 18 0 68 0;
#X connect 19 0 69 0;
#X connect 20 0 21 0;
#X connect 21 0 67 0;
#X connect 22 0 17 0;
#X connect 23 0 18 0;
#X connect 24 0 19 0;
#X connect 25 0 56 0;
#X connect 26 0 51 0;
#X connect 31 0 32 0;
#X connect 32 0 42 0;
#X connect 33 0 34 0;
#X connect 34 0 41 0;
#X connect 35 0 36 0;
#X connect 36 0 40 0;
#X connect 37 0 38 0;
#X connect 38 0 39 0;
#X connect 43 0 57 0;
#X connect 44 0 25 0;
#X connect 45 0 46 0;
#X connect 46 0 52 0;
#X connect 47 0 48 0;
#X connect 48 0 53 0;
#X connect 51 0 71 0;
#X connect 51 0 27 0;
#X connect 51 1 28 0;
#X connect 51 1 73 0;
#X connect 51 2 29 0;
#X connect 51 2 75 0;
#X connect 51 3 65 0;
#X connect 51 3 30 0;
#X connect 51 4 63 0;
#X connect 51 4 49 0;
#X connect 51 5 61 0;
#X connect 51 5 50 0;
#X connect 54 0 55 0;
#X connect 54 0 77 0;
#X connect 55 0 11 0;
#X connect 55 0 60 1;
#X connect 56 1 26 0;
#X connect 57 0 0 0;
#X connect 58 0 0 0;
#X connect 59 0 8 0;
#X connect 60 0 79 0;
#X connect 61 0 47 0;
#X connect 62 0 61 1;
#X connect 63 0 45 0;
#X connect 64 0 63 1;
#X connect 65 0 31 0;
#X connect 66 0 65 1;
#X connect 71 0 37 0;
#X connect 72 0 71 1;
#X connect 73 0 35 0;
#X connect 74 0 73 1;
#X connect 75 0 33 0;
#X connect 76 0 75 1;
#X connect 79 0 78 0;
#X connect 80 0 79 1;
#X connect 81 0 82 0;
#X connect 82 0 86 0;
#X connect 82 0 90 2;
#X connect 83 0 87 0;
#X connect 84 0 90 0;
#X connect 85 0 84 1;
#X connect 86 0 84 0;
#X connect 87 0 84 0;
#X connect 89 0 83 0;
#X connect 89 0 90 1;
#X connect 90 0 91 0;
#X connect 91 0 110 0;
#X connect 92 0 91 1;
#X connect 93 0 94 0;
#X connect 94 0 98 0;
#X connect 94 0 102 2;
#X connect 95 0 99 0;
#X connect 96 0 102 0;
#X connect 97 0 96 1;
#X connect 98 0 96 0;
#X connect 99 0 96 0;
#X connect 101 0 95 0;
#X connect 101 0 102 1;
#X connect 102 0 104 0;
#X connect 104 0 103 0;
#X connect 105 0 104 1;
#X connect 106 0 89 0;
#X connect 106 0 109 0;
#X connect 107 0 101 0;
#X connect 107 0 108 0;
