#N canvas 463 195 756 268 10;
#X obj 95 179 mrpeach/slipdec 65536;
#X obj 95 47 mrpeach/slipenc 65536;
#X obj 359 20 loadbang;
#X obj 95 22 inlet;
#X obj 95 206 outlet;
#X obj 261 46 inlet;
#X obj 95 135 comport;
#X obj 134 157 print errors;
#X msg 336 49 devicename /dev/cu.wchusbserial1420 \, pollintervall
1;
#X obj 308 217 print;
#X msg 359 83 baud 9600;
#X connect 0 0 4 0;
#X connect 1 0 6 0;
#X connect 2 0 10 0;
#X connect 2 0 8 0;
#X connect 3 0 1 0;
#X connect 5 0 6 0;
#X connect 6 0 0 0;
#X connect 6 1 7 0;
#X connect 8 0 6 0;
#X connect 10 0 6 0;
