#N canvas 436 168 450 300 10;
#X obj 66 -12 oscparse;
#X text 64 -58 OSC in;
#X obj 66 -37 netreceive -u -b 12001;
#X obj 66 12 list trim;
#X obj 89 35 print osc-receive:;
#X obj 66 57 s osc-receive;
#X obj 67 188 r osc-receive;
#X obj 67 214 route memorialDayMode, f 40;
#X obj 65 255 tgl 15 0 empty empty empty 17 7 0 10 -262144 -1 -1 0
1;
#X connect 0 0 3 0;
#X connect 2 0 0 0;
#X connect 3 0 4 0;
#X connect 3 0 5 0;
#X connect 6 0 7 0;
#X connect 7 0 8 0;
